<svg width="950" height="650" viewBox="0 0 950 650" fill="none" xmlns="http://www.w3.org/2000/svg">
<path d="M237.33 218.27V142.14L247.97 141.79C328.66 139.16 387.51 113.66 422.67 92.73C445.44 79.18 462.01 65.43 471.91 56.29L479.37 49.39L486.83 56.29C496.73 65.44 513.3 79.18 536.07 92.73C571.24 113.66 630.09 139.16 710.77 141.79L721.41 142.14V218.27H741.82V121.37L731.44 121.54C729.02 121.58 726.62 121.6 724.22 121.6C658.84 121.6 599.65 106.34 548.29 76.24C509.81 53.69 489.5 30.2 487.5 27.83L479.39 18.69L470.9 28.19C467.48 32.17 447.31 54.62 410.42 76.24C359.06 106.34 299.85 121.6 234.44 121.6C232.06 121.6 229.67 121.58 227.27 121.54L216.89 121.37V218.27H237.3H237.33Z" fill="url(#paint0_linear_1_67)"/>
<path d="M689.19 453.07C672.21 485.02 648.78 513.97 619.47 538.65C589.15 564.18 548.37 585.03 483.09 608.36L479.39 609.68L475.69 608.36C410.42 585.03 369.63 564.18 339.31 538.65C309.99 513.96 286.57 485.01 269.59 453.07H246.64C265.11 491.09 291.89 525.4 326.17 554.26C359.41 582.25 404.23 604.94 476.01 630.12L479.39 631.3L482.77 630.12C554.56 604.94 599.37 582.25 632.62 554.26C666.9 525.4 693.68 491.08 712.15 453.07H689.2H689.19Z" fill="url(#paint1_linear_1_67)"/>
<path d="M742.63 195.18C723.45 187.13 702.39 182.68 680.29 182.68C669.15 182.68 658.27 183.81 647.77 185.97C624.15 190.81 602.42 200.81 583.8 214.74C583.5 214.96 527.26 257.51 479.39 293.74C431.51 257.51 375.28 214.96 374.98 214.74C356.37 200.8 334.63 190.8 311.01 185.97C300.5 183.82 289.63 182.68 278.49 182.68C256.39 182.68 235.33 187.13 216.15 195.18C158.05 219.58 117.24 277.06 117.24 344.08C117.24 411.1 158.08 468.61 216.22 493C235.38 501.03 256.42 505.47 278.5 505.47C314.46 505.47 347.68 493.69 374.5 473.78L479.4 394.39L584.31 473.78C611.13 493.7 644.35 505.47 680.31 505.47C702.38 505.47 723.43 501.03 742.59 493C800.73 468.61 841.57 411.12 841.57 344.08C841.57 277.04 800.76 219.58 742.66 195.18H742.63ZM323.63 411.02C310.76 419.7 295.27 424.77 278.59 424.77C234.06 424.77 197.95 388.64 197.95 344.08C197.95 299.52 234.05 263.38 278.59 263.38C298.25 263.38 316.26 270.42 330.25 282.12L339.88 289.33L412.76 344.14L323.63 411.02ZM680.19 424.77C663.51 424.77 648.01 419.7 635.15 411.02L546.02 344.14L628.53 282.12C642.52 270.42 660.54 263.38 680.19 263.38C724.72 263.38 760.83 299.51 760.83 344.08C760.83 388.65 724.73 424.77 680.19 424.77Z" fill="url(#paint2_linear_1_67)"/>
<g opacity="0.7">
<path d="M682.3 587.39L682.14 565.52C682.88 565.52 683.62 565.5 684.36 565.49L684.77 587.35C683.95 587.37 683.13 587.38 682.31 587.38L682.3 587.39ZM700.26 586.58L698.48 564.79C699.22 564.73 699.96 564.67 700.7 564.6L702.7 586.37C701.89 586.45 701.07 586.52 700.25 586.58H700.26ZM718.1 584.46L714.74 562.85C715.47 562.74 716.2 562.62 716.93 562.5L720.54 584.06C719.73 584.2 718.92 584.33 718.1 584.45V584.46ZM735.76 581.02L730.79 559.73C731.51 559.56 732.23 559.39 732.95 559.21L738.15 580.45C737.35 580.64 736.56 580.84 735.76 581.02ZM753.12 576.28L746.56 555.42C747.27 555.2 747.98 554.97 748.69 554.74L755.45 575.53C754.67 575.78 753.9 576.03 753.12 576.28ZM770.07 570.26L761.98 549.95C762.67 549.67 763.36 549.4 764.05 549.11L772.34 569.34C771.58 569.65 770.83 569.96 770.07 570.26ZM786.5 563.01L776.93 543.35C777.6 543.03 778.26 542.7 778.92 542.37L788.69 561.93C787.96 562.29 787.23 562.65 786.49 563.01H786.5ZM802.34 554.56L791.35 535.66C791.99 535.29 792.63 534.91 793.27 534.53L804.46 553.32C803.76 553.74 803.05 554.15 802.35 554.56H802.34ZM817.52 544.96L805.16 526.92C805.77 526.5 806.39 526.07 807 525.65L819.52 543.57C818.85 544.04 818.18 544.5 817.51 544.96H817.52ZM831.95 534.27L818.31 517.18C818.89 516.72 819.47 516.25 820.04 515.78L833.86 532.72C833.23 533.24 832.59 533.75 831.95 534.26V534.27ZM845.57 522.54L830.71 506.5C831.25 506 831.8 505.49 832.34 504.98L847.36 520.87C846.77 521.43 846.17 521.99 845.57 522.55V522.54ZM858.29 509.84L842.29 494.94C842.8 494.4 843.3 493.85 843.8 493.3L859.96 508.03C859.41 508.64 858.85 509.24 858.29 509.84ZM870.05 496.25L853.01 482.55C853.47 481.97 853.93 481.39 854.39 480.81L871.58 494.32C871.07 494.97 870.56 495.61 870.05 496.25ZM880.79 481.81L862.78 469.42C863.2 468.81 863.62 468.19 864.04 467.57L882.18 479.78C881.72 480.46 881.26 481.14 880.8 481.81H880.79ZM890.43 466.62L871.55 455.58C871.93 454.94 872.3 454.29 872.66 453.65L891.65 464.48C891.24 465.19 890.83 465.9 890.42 466.61L890.43 466.62ZM898.93 450.74L879.28 441.15C879.61 440.48 879.93 439.81 880.25 439.13L899.99 448.52C899.64 449.26 899.28 450 898.92 450.73L898.93 450.74ZM906.23 434.28L885.92 426.17C886.2 425.48 886.47 424.78 886.74 424.09L907.13 431.99C906.83 432.75 906.53 433.52 906.23 434.28ZM912.28 417.31L891.43 410.74C891.65 410.03 891.88 409.31 892.09 408.6L913.01 414.97C912.77 415.76 912.53 416.54 912.28 417.32V417.31ZM917.05 399.96L895.77 394.95C895.94 394.23 896.11 393.5 896.27 392.78L917.61 397.56C917.43 398.36 917.25 399.16 917.06 399.96H917.05ZM920.51 382.31L898.91 378.9C899.03 378.16 899.14 377.43 899.25 376.69L920.88 379.89C920.76 380.7 920.64 381.51 920.51 382.31ZM922.66 364.47L900.87 362.65C900.93 361.91 900.99 361.17 901.04 360.42L922.85 362.02C922.79 362.84 922.73 363.65 922.66 364.47ZM923.49 346.52L901.63 346.3C901.63 345.56 901.64 344.81 901.64 344.07H923.51C923.51 344.89 923.51 345.71 923.5 346.52H923.49Z" fill="url(#paint3_linear_1_67)"/>
</g>
<g opacity="0.7">
<path d="M96.2 514.65C95.63 514.07 95.07 513.49 94.5 512.91L110.23 497.72C110.75 498.26 111.27 498.8 111.8 499.33L96.2 514.65ZM84.09 501.4C83.56 500.78 83.04 500.15 82.51 499.52L99.32 485.53C99.8 486.1 100.28 486.67 100.76 487.24L84.09 501.39V501.4ZM72.96 487.27C72.48 486.61 72.01 485.95 71.53 485.29L89.32 472.58C89.75 473.18 90.19 473.79 90.63 474.39L72.96 487.27ZM62.92 472.37C62.49 471.68 62.06 470.98 61.64 470.29L80.33 458.94C80.72 459.57 81.1 460.21 81.5 460.84L62.92 472.38V472.37ZM54.01 456.76C53.63 456.04 53.26 455.31 52.89 454.59L72.37 444.66C72.71 445.32 73.05 445.98 73.39 446.64L54.01 456.77V456.76ZM46.28 440.53C45.96 439.78 45.64 439.03 45.32 438.28L65.49 429.83C65.78 430.51 66.07 431.2 66.36 431.88L46.28 440.54V440.53ZM39.78 423.77C39.51 423 39.25 422.23 38.99 421.45L59.72 414.51C59.96 415.22 60.2 415.92 60.44 416.62L39.77 423.76L39.78 423.77ZM34.54 406.58C34.33 405.79 34.12 405 33.92 404.2L55.11 398.82C55.29 399.54 55.48 400.26 55.67 400.97L34.54 406.58ZM30.58 389.05C30.43 388.24 30.28 387.44 30.14 386.63L51.67 382.83C51.8 383.56 51.93 384.29 52.07 385.02L30.58 389.06V389.05ZM27.92 371.26C27.83 370.45 27.74 369.64 27.66 368.83L49.41 366.61C49.49 367.35 49.56 368.09 49.65 368.84L27.92 371.26ZM26.58 353.33C26.55 352.52 26.52 351.7 26.5 350.89L48.36 350.27C48.38 351.02 48.41 351.76 48.43 352.51L26.58 353.33ZM48.41 336.13L26.56 335.35C26.59 334.53 26.62 333.72 26.66 332.9L48.5 333.9C48.47 334.64 48.44 335.39 48.41 336.13ZM49.59 319.81L27.86 317.42C27.95 316.61 28.04 315.8 28.14 314.99L49.85 317.59C49.76 318.33 49.68 319.07 49.59 319.82V319.81ZM51.97 303.6L30.47 299.64C30.62 298.83 30.77 298.03 30.93 297.22L52.39 301.42C52.25 302.15 52.11 302.88 51.97 303.61V303.6ZM55.54 287.63L34.39 282.09C34.6 281.3 34.81 280.5 35.03 279.71L56.12 285.48C55.92 286.2 55.73 286.91 55.54 287.63ZM60.28 271.96L39.6 264.87C39.87 264.09 40.14 263.32 40.41 262.54L61.02 269.85C60.77 270.55 60.53 271.25 60.29 271.95L60.28 271.96ZM66.17 256.69L46.07 248.07C46.39 247.32 46.72 246.56 47.05 245.81L67.05 254.64C66.75 255.32 66.45 256 66.16 256.69H66.17ZM73.18 241.89L53.78 231.81C54.16 231.08 54.54 230.35 54.93 229.63L74.22 239.92C73.87 240.58 73.52 241.23 73.18 241.89ZM81.27 227.66L62.68 216.15C63.11 215.45 63.55 214.76 63.98 214.07L82.46 225.76C82.06 226.39 81.66 227.02 81.27 227.66ZM90.4 214.06L72.71 201.21C73.19 200.55 73.68 199.89 74.17 199.23L91.73 212.26C91.28 212.86 90.84 213.46 90.4 214.07V214.06ZM100.52 201.17L83.83 187.04C84.36 186.42 84.89 185.79 85.43 185.17L101.98 199.46C101.49 200.03 101 200.59 100.52 201.17ZM111.56 189.05L95.95 173.74C96.52 173.16 97.1 172.58 97.67 172L113.13 187.46C112.6 187.99 112.08 188.52 111.56 189.05Z" fill="url(#paint4_linear_1_67)"/>
</g>
<g opacity="0.15">
<path d="M680.29 549.47C635.89 549.47 593.63 535.51 558.06 509.1L557.95 509.02L479.38 449.57L400.65 509.15C365.12 535.53 322.88 549.47 278.48 549.47C251.01 549.47 224.33 544.12 199.19 533.58C122.67 501.48 73.23 427.1 73.23 344.08C73.23 261.06 122.64 186.72 199.11 154.61C224.31 144.04 251.01 138.68 278.49 138.68C292.38 138.68 306.29 140.09 319.84 142.86C349.4 148.92 376.68 161.14 400.92 179.2L401.38 179.55C402.82 180.64 410.14 186.17 479.39 238.57C547.61 186.95 555.92 180.67 557.42 179.54C581.79 161.29 609.21 148.96 638.94 142.87C652.49 140.09 666.4 138.69 680.29 138.69C707.76 138.69 734.47 144.05 759.65 154.62C836.13 186.74 885.54 261.11 885.54 344.09C885.54 427.07 836.1 501.48 759.58 533.58C734.43 544.13 707.75 549.48 680.28 549.48L680.29 549.47ZM576 485.06C606.34 507.57 642.4 519.47 680.29 519.47C703.75 519.47 726.53 514.91 747.98 505.91C813.32 478.5 855.54 414.98 855.54 344.08C855.54 273.18 813.34 209.69 748.04 182.27C726.55 173.25 703.75 168.68 680.29 168.68C668.42 168.68 656.53 169.88 644.96 172.25C619.59 177.45 596.2 187.97 575.43 203.52C573.95 204.63 565.35 211.14 493.27 265.68L479.39 276.18L465.51 265.68C392.36 210.32 384.79 204.61 383.32 203.5L382.98 203.24C362.3 187.84 339.03 177.41 313.82 172.25C302.25 169.88 290.36 168.68 278.49 168.68C255.02 168.68 232.22 173.25 210.72 182.27C145.42 209.69 103.23 273.2 103.23 344.07C103.23 414.94 145.45 478.49 210.8 505.9C232.25 514.9 255.03 519.46 278.49 519.46C316.38 519.46 352.42 507.57 382.73 485.08L479.39 411.93L576 485.04V485.06Z" fill="url(#paint5_linear_1_67)"/>
</g>
<path opacity="0.35" d="M680.29 512.47C643.93 512.47 609.32 501.05 580.19 479.45L479.39 403.17L378.52 479.51C349.46 501.06 314.85 512.48 278.49 512.48C255.96 512.48 234.1 508.1 213.51 499.46C150.77 473.14 110.24 412.15 110.24 344.08C110.24 276.01 150.75 215.05 213.44 188.73C234.07 180.07 255.96 175.68 278.49 175.68C289.89 175.68 301.31 176.83 312.42 179.11C336.61 184.07 358.94 194.07 378.79 208.85L379.11 209.09C380.57 210.19 388.12 215.89 461.29 271.26L479.39 284.96L497.49 271.26C571.52 215.24 578.24 210.16 579.66 209.09C599.57 194.18 622.01 184.09 646.36 179.1C657.47 176.82 668.88 175.67 680.29 175.67C702.82 175.67 724.71 180.06 745.34 188.71C808.03 215.04 848.55 276.02 848.55 344.06C848.55 412.1 808.01 473.12 745.28 499.44C724.69 508.08 702.82 512.46 680.3 512.46L680.29 512.47Z" stroke="url(#paint6_linear_1_67)" stroke-width="14" stroke-miterlimit="10"/>
<path d="M680.29 519.47C642.42 519.47 606.36 507.58 576.02 485.07L479.39 411.94L382.74 485.08C352.39 507.59 316.36 519.46 278.49 519.46C255.03 519.46 232.25 514.9 210.8 505.9C145.46 478.49 103.23 414.97 103.23 344.07C103.23 273.17 145.42 209.69 210.72 182.26C232.22 173.24 255.01 168.67 278.48 168.67C290.35 168.67 302.24 169.87 313.81 172.24C339.01 177.4 362.27 187.83 382.96 203.22L383.33 203.5C384.79 204.6 392.36 210.32 465.51 265.67L479.39 276.17L493.27 265.67C567.27 209.68 574.01 204.58 575.46 203.49C596.22 187.95 619.6 177.44 644.97 172.24C656.54 169.87 668.43 168.67 680.3 168.67C703.77 168.67 726.56 173.24 748.06 182.26C813.36 209.68 855.56 273.2 855.56 344.07C855.56 414.94 813.34 478.49 748 505.9C726.55 514.9 703.77 519.46 680.31 519.46L680.29 519.47ZM479.39 394.39L584.42 473.87C612.28 494.53 645.45 505.47 680.3 505.47C701.89 505.47 722.85 501.27 742.58 493C802.71 467.78 841.56 409.32 841.56 344.08C841.56 278.84 802.73 220.41 742.64 195.18C722.87 186.89 701.9 182.68 680.3 182.68C669.37 182.68 658.43 183.79 647.78 185.97C624.45 190.75 602.95 200.42 583.87 214.71C582.49 215.75 575.56 220.99 501.73 276.86L479.4 293.75L457.07 276.86C383.93 221.52 376.37 215.8 374.9 214.7L374.56 214.45C355.58 200.33 334.18 190.74 311.01 185.99C300.36 183.81 289.42 182.7 278.49 182.7C256.89 182.7 235.92 186.91 216.15 195.2C156.06 220.43 117.24 278.88 117.24 344.1C117.24 409.32 156.09 467.8 216.22 493.02C235.95 501.3 256.9 505.49 278.49 505.49C313.33 505.49 346.48 494.57 374.35 473.9L479.39 394.41V394.39Z" fill="url(#paint7_linear_1_67)"/>
<path d="M343.7 196.44L288.75 208.88L301.86 266.82C304.13 267.5 306.36 268.29 308.54 269.16L295.92 213.41L352.42 200.62C349.56 199.14 346.65 197.75 343.69 196.44H343.7Z" fill="white"/>
<path d="M203.29 372.96C202.09 369.82 201.07 366.6 200.27 363.28L181.26 418.7L127.24 400.17C128.16 402.65 129.14 405.1 130.17 407.52L184.99 426.33L203.3 372.97L203.29 372.96Z" fill="white"/>
<path d="M355.39 387.18H413.14V444.52L419.14 439.98V381.18H363.39L355.39 387.18Z" fill="white"/>
<path d="M474.37 289.95L407.72 340.35L412.71 344.1L479.34 293.71C477.69 292.46 476.03 291.21 474.37 289.95Z" fill="white"/>
<path d="M548.67 342.09L479.45 394.44L484.42 398.2L550.98 347.86L546.01 344.14L548.69 342.13L548.67 342.09Z" fill="white"/>
<path d="M542.9 390.38L599.64 384.38L592.59 379.09L536.31 385.05L542.33 442.03L548.89 446.99L542.9 390.38Z" fill="white"/>
<path d="M758.94 361.38C758.19 364.8 757.24 368.14 756.08 371.38L774.05 422.86L830.39 403.2C831.33 400.8 832.22 398.37 833.05 395.92L777.74 415.22L758.95 361.38H758.94Z" fill="white"/>
<path d="M638.8 224.31L632.92 278.72C635.01 277.2 637.18 275.77 639.42 274.46L645.42 219L586.7 212.65C585.73 213.34 584.76 214.04 583.81 214.76C583.76 214.8 582.28 215.92 579.63 217.92L638.82 224.32L638.8 224.31Z" fill="white"/>
<g filter="url(#filter0_d_1_67)">
<path d="M438.49 526.61C438.28 525.88 437.97 525.25 437.55 524.63C437.13 524 436.72 523.59 436.19 523.17C435.66 522.75 435.04 522.44 434.31 522.23C433.58 522.02 432.85 521.92 432.02 521.92C430.56 521.92 429.2 522.34 428.06 523.07C426.91 523.8 425.97 524.84 425.35 526.3C424.72 527.76 424.41 529.43 424.41 531.51C424.41 533.59 424.72 535.37 425.35 536.72C425.98 538.18 426.91 539.22 428.06 539.95C429.21 540.68 430.56 541.1 432.13 541.1C433.49 541.1 434.74 540.79 435.78 540.27C436.82 539.75 437.55 539.02 438.18 537.98C438.7 537.04 439.01 535.79 439.01 534.54L440.16 534.75H432.76V530.89H443.81V534.12C443.81 536.41 443.29 538.5 442.35 540.17C441.31 541.84 439.95 543.19 438.28 544.13C436.51 545.07 434.53 545.49 432.23 545.49C429.73 545.49 427.54 544.97 425.56 543.82C423.68 542.67 422.22 541.11 421.08 539.02C420.04 536.93 419.52 534.43 419.52 531.51C419.52 529.32 419.83 527.34 420.46 525.57C421.09 523.8 421.92 522.34 423.07 521.19C424.22 519.94 425.57 519 427.03 518.37C428.59 517.74 430.16 517.43 432.03 517.43C433.49 517.43 434.95 517.64 436.3 518.06C437.66 518.48 438.8 519.1 439.74 519.94C440.78 520.77 441.62 521.71 442.24 522.86C442.86 524.01 443.28 525.15 443.49 526.51H438.49V526.61ZM456.53 545.59C454.55 545.59 452.78 545.17 451.32 544.23C449.86 543.29 448.71 542.14 447.88 540.58C447.05 539.02 446.63 537.14 446.63 535.05C446.63 532.96 447.05 531.09 447.88 529.52C448.71 527.96 449.86 526.7 451.32 525.77C452.78 524.94 454.55 524.41 456.53 524.41C458.51 524.41 460.28 524.83 461.74 525.77C463.2 526.6 464.35 527.86 465.18 529.52C466.01 531.08 466.43 532.96 466.43 535.05C466.43 537.14 466.01 539.01 465.18 540.58C464.35 542.14 463.2 543.4 461.74 544.23C460.28 545.17 458.51 545.59 456.53 545.59ZM456.53 541.73C457.57 541.73 458.51 541.42 459.24 540.79C459.97 540.16 460.49 539.33 460.91 538.39C461.22 537.35 461.43 536.2 461.43 535.05C461.43 533.8 461.22 532.65 460.91 531.61C460.6 530.57 459.97 529.73 459.24 529.21C458.51 528.58 457.57 528.27 456.53 528.27C455.38 528.27 454.44 528.58 453.71 529.21C452.98 529.84 452.46 530.67 452.04 531.61C451.73 532.65 451.52 533.8 451.52 535.05C451.52 536.3 451.73 537.45 452.04 538.39C452.35 539.43 452.98 540.16 453.71 540.79C454.54 541.42 455.48 541.73 456.53 541.73ZM487.29 524.73L479.99 545.17H474.67L467.37 524.73H472.48L477.17 539.95H477.38L482.07 524.73H487.28H487.29ZM498.24 545.58C496.15 545.58 494.38 545.16 492.92 544.33C491.46 543.5 490.31 542.24 489.48 540.68C488.65 539.12 488.23 537.24 488.23 535.05C488.23 532.86 488.65 531.09 489.48 529.52C490.31 527.96 491.46 526.7 492.82 525.77C494.28 524.83 495.95 524.41 497.93 524.41C499.18 524.41 500.43 524.62 501.48 525.04C502.63 525.46 503.57 526.08 504.5 526.92C505.33 527.75 506.06 528.8 506.59 530.15C507.11 531.4 507.32 532.97 507.32 534.74V536.2H490.53V532.97H502.73C502.73 532.03 502.52 531.2 502.1 530.47C501.68 529.74 501.16 529.22 500.43 528.8C499.7 528.38 498.97 528.17 498.03 528.17C497.09 528.17 496.15 528.38 495.42 528.9C494.69 529.42 494.06 529.94 493.65 530.78C493.23 531.51 493.02 532.34 493.02 533.28V536.1C493.02 537.25 493.23 538.29 493.65 539.12C494.07 539.95 494.69 540.58 495.53 541.1C496.36 541.52 497.2 541.73 498.24 541.73C498.97 541.73 499.6 541.63 500.12 541.42C500.64 541.21 501.16 540.9 501.58 540.48C502 540.06 502.31 539.65 502.52 539.02L507 539.54C506.69 540.69 506.17 541.73 505.33 542.67C504.5 543.5 503.56 544.23 502.31 544.76C501.27 545.39 499.81 545.59 498.24 545.59V545.58ZM510.65 545.16V524.72H515.34V528.16H515.55C515.97 527.01 516.59 526.07 517.43 525.45C518.37 524.82 519.41 524.51 520.56 524.51H521.5C521.81 524.51 522.13 524.51 522.33 524.61V529.09C522.12 528.99 521.81 528.99 521.39 528.88C520.97 528.78 520.56 528.78 520.14 528.78C519.31 528.78 518.47 528.99 517.74 529.41C517.01 529.83 516.49 530.35 516.07 530.97C515.65 531.6 515.44 532.43 515.44 533.26V545.15H510.64L510.65 545.16ZM529.63 533.17V545.16H524.83V524.72H529.42V528.16H529.63C530.15 527.01 530.88 526.07 531.92 525.45C532.96 524.83 534.21 524.41 535.78 524.41C537.24 524.41 538.39 524.72 539.43 525.35C540.47 525.98 541.31 526.81 541.93 527.96C542.56 529.11 542.76 530.46 542.76 532.13V545.16H537.96V532.86C537.96 531.5 537.65 530.46 536.92 529.63C536.19 528.9 535.25 528.48 534 528.48C533.17 528.48 532.44 528.69 531.71 529C531.08 529.31 530.56 529.94 530.15 530.56C529.84 531.29 529.63 532.12 529.63 533.17Z" fill="#171321"/>
<path d="M478.95 358.21L462.48 336.52L470.61 330.37C472.28 329.12 473.95 328.39 475.51 328.08C477.07 327.87 478.64 328.08 479.99 328.71C481.45 329.34 482.6 330.38 483.64 331.73C484.68 333.08 485.31 334.55 485.62 336.11C485.83 337.67 485.62 339.13 484.99 340.59C484.36 342.05 483.11 343.41 481.44 344.76L476.02 348.83L473.62 345.6L478.52 341.95C479.46 341.22 480.19 340.39 480.5 339.66C480.92 338.83 481.02 337.99 480.81 337.26C480.71 336.43 480.29 335.7 479.66 334.86C479.03 334.13 478.41 333.5 477.68 333.19C476.95 332.88 476.12 332.77 475.28 332.88C474.44 332.99 473.51 333.51 472.46 334.24L468.81 336.95L482.78 355.3L478.92 358.22L478.95 358.21Z" fill="white"/>
<path d="M501.99 341.32C500.95 342.15 499.9 342.57 498.76 342.88C497.61 343.09 496.57 343.09 495.53 342.67C494.49 342.36 493.55 341.63 492.82 340.48C492.09 339.54 491.67 338.71 491.57 337.77C491.47 336.94 491.57 336.1 491.88 335.27C492.19 334.44 492.61 333.71 493.24 332.98C493.87 332.25 494.49 331.52 495.22 330.79C496.05 329.96 496.78 329.33 497.31 328.81C497.84 328.29 498.14 327.87 498.35 327.45C498.45 327.03 498.45 326.72 498.14 326.3V326.2C497.51 325.37 496.78 324.95 496.05 324.84C495.22 324.74 494.38 325.05 493.55 325.78C492.61 326.51 491.99 327.24 491.78 328.07C491.57 328.9 491.57 329.63 491.78 330.36L487.82 332.55C487.3 331.3 487.19 330.15 487.3 329C487.41 327.85 487.82 326.71 488.55 325.66C489.28 324.61 490.11 323.68 491.26 322.84C492.09 322.21 492.93 321.69 493.76 321.38C494.7 320.96 495.64 320.75 496.58 320.65C497.52 320.55 498.46 320.75 499.4 321.17C500.34 321.59 501.17 322.32 502.01 323.46L510.25 334.3L506.6 337.12L504.93 334.93L504.83 335.03C504.93 335.66 504.93 336.28 504.83 337.01C504.73 337.74 504.41 338.47 504 339.1C503.48 339.93 502.85 340.56 502.02 341.29L501.99 341.32ZM500.84 337.77C501.57 337.14 502.2 336.52 502.51 335.79C502.82 335.06 502.93 334.33 502.93 333.6C502.83 332.87 502.62 332.24 502.1 331.62L500.64 329.74C500.64 329.95 500.43 330.16 500.22 330.47C500.01 330.78 499.7 331.1 499.39 331.41L498.45 332.35L497.62 333.18C497.1 333.7 496.68 334.22 496.37 334.74C496.06 335.26 495.85 335.78 495.85 336.3C495.85 336.82 495.95 337.34 496.37 337.76C496.89 338.49 497.52 338.8 498.35 338.8C499.18 338.59 500.02 338.28 500.85 337.76L500.84 337.77Z" fill="white"/>
<path d="M520.86 326.93C519.19 328.18 517.52 328.91 515.86 329.02C514.19 329.23 512.52 328.92 510.96 328.08C509.4 327.24 507.94 326.1 506.69 324.43C505.44 322.76 504.6 321.09 504.29 319.32C503.98 317.55 504.08 315.88 504.71 314.32C505.34 312.76 506.48 311.3 508.05 310.15C509.41 309.11 510.76 308.48 512.12 308.17C513.48 307.86 514.83 307.96 516.08 308.38C517.33 308.8 518.48 309.53 519.42 310.67L515.77 313.49C515.04 312.86 514.21 312.45 513.27 312.34C512.33 312.23 511.39 312.55 510.45 313.28C509.62 313.91 509.09 314.64 508.89 315.47C508.58 316.3 508.58 317.24 508.89 318.29C509.2 319.34 509.72 320.38 510.56 321.52C511.4 322.66 512.33 323.5 513.17 324.02C514.01 324.54 515.05 324.85 515.88 324.85C516.82 324.85 517.65 324.54 518.49 323.91C519.01 323.49 519.43 322.97 519.74 322.45C520.05 321.93 520.16 321.3 520.16 320.68C520.16 320.06 519.95 319.43 519.64 318.7L523.29 315.88C524.12 317.13 524.54 318.38 524.54 319.74C524.64 321.1 524.33 322.35 523.71 323.6C523.19 324.75 522.25 325.89 520.89 326.94L520.86 326.93Z" fill="white"/>
<path d="M530.04 319.42L513.67 297.73L517.53 294.81L534 316.5L530.04 319.42ZM529.73 311.7L526.18 307.11L526.81 306.69L527.64 295.74L532.12 292.3L530.97 305.75L530.14 306.38L529.72 311.7H529.73ZM540.26 311.7L529.31 308.36L529.83 303.67L544.74 308.26L540.26 311.7Z" fill="white"/>
<path d="M551 304.1C549.96 304.93 548.91 305.35 547.77 305.66C546.62 305.87 545.58 305.87 544.54 305.45C543.5 305.03 542.56 304.41 541.83 303.26C541.1 302.32 540.68 301.49 540.58 300.55C540.48 299.72 540.58 298.88 540.89 298.05C541.2 297.22 541.62 296.49 542.25 295.76C542.88 295.03 543.5 294.3 544.23 293.57C545.06 292.74 545.79 292.11 546.32 291.59C546.85 291.07 547.15 290.65 547.36 290.23C547.46 289.81 547.46 289.5 547.15 289.08V288.98C546.52 288.15 545.79 287.73 545.06 287.62C544.23 287.52 543.39 287.83 542.56 288.56C541.62 289.29 541 290.02 540.79 290.85C540.58 291.68 540.58 292.41 540.79 293.14L536.83 295.33C536.31 294.08 536.2 292.93 536.31 291.78C536.42 290.63 536.83 289.49 537.56 288.44C538.29 287.39 539.12 286.46 540.27 285.62C541.1 284.99 541.94 284.58 542.77 284.16C543.71 283.74 544.65 283.53 545.59 283.43C546.53 283.33 547.47 283.53 548.41 283.95C549.35 284.37 550.18 285.1 551.02 286.24L559.26 297.08L555.61 299.9L553.94 297.71L553.84 297.81C553.94 298.44 553.94 299.06 553.84 299.79C553.74 300.52 553.42 301.25 553.01 301.88C552.49 302.71 551.86 303.44 551.03 304.07L551 304.1ZM549.85 300.55C550.58 299.92 551.21 299.3 551.52 298.57C551.83 297.84 551.94 297.11 551.94 296.38C551.84 295.65 551.63 295.02 551.11 294.4L549.65 292.52C549.65 292.73 549.44 292.94 549.23 293.25C549.02 293.56 548.71 293.88 548.4 294.19C548.09 294.5 547.77 294.82 547.46 295.13C547.15 295.44 546.83 295.76 546.63 295.96C546.11 296.48 545.69 297 545.38 297.52C545.07 298.04 544.86 298.56 544.86 299.08C544.86 299.6 544.96 300.12 545.38 300.54C545.9 301.27 546.53 301.58 547.36 301.58C548.3 301.48 549.03 301.16 549.86 300.54L549.85 300.55Z" fill="white"/>
<path d="M574.46 295.86C573.1 296.9 571.75 297.63 570.5 297.95C569.25 298.37 568.1 298.47 566.95 298.26C565.91 298.05 564.97 297.74 564.13 297.11L566.95 293.67C567.37 293.88 567.78 293.98 568.31 294.09C568.84 294.2 569.46 294.09 570.08 293.99C570.71 293.78 571.44 293.47 572.27 292.84C573.31 292.01 574.04 291.07 574.36 290.02C574.68 288.97 574.36 287.83 573.42 286.58L571.13 283.45L570.92 283.55C571.02 284.07 571.02 284.7 571.02 285.43C570.92 286.16 570.71 286.89 570.29 287.62C569.87 288.35 569.25 289.08 568.31 289.81C567.06 290.75 565.7 291.37 564.24 291.48C562.78 291.69 561.32 291.38 559.86 290.65C558.4 289.92 556.94 288.67 555.59 286.9C554.24 285.13 553.4 283.35 553.09 281.69C552.78 280.02 552.88 278.46 553.4 277.1C553.92 275.74 554.86 274.49 556.11 273.55C557.05 272.82 557.99 272.4 558.82 272.19C559.65 272.09 560.49 272.09 561.22 272.19C561.95 272.4 562.58 272.61 562.99 272.82L563.2 272.61L561.11 269.9L564.86 267.08L577.37 283.55C578.41 284.91 578.93 286.37 579.04 287.72C579.04 289.18 578.73 290.54 577.89 291.79C577.06 293.56 575.91 294.71 574.45 295.86H574.46ZM567.16 286.16C567.99 285.53 568.52 284.8 568.83 283.97C569.14 283.14 569.14 282.2 568.83 281.26C568.52 280.32 568 279.28 567.27 278.24C566.54 277.2 565.71 276.47 564.77 275.84C563.94 275.32 563 275.01 562.16 275.01C561.22 275.01 560.39 275.32 559.55 275.95C558.71 276.58 558.19 277.31 557.88 278.24C557.67 279.07 557.67 280.01 557.98 281.06C558.29 282 558.81 283.04 559.54 283.98C560.27 285.02 561.1 285.75 561.94 286.27C562.78 286.79 563.71 287 564.55 287C565.39 287 566.32 286.79 567.16 286.17V286.16Z" fill="white"/>
<path d="M588.01 275.95C586.34 277.2 584.67 277.93 583.01 278.14C581.34 278.35 579.67 278.04 578.11 277.31C576.55 276.58 575.09 275.33 573.84 273.56C572.59 271.89 571.75 270.22 571.44 268.45C571.13 266.68 571.23 265.01 571.86 263.45C572.49 261.89 573.53 260.53 575.09 259.28C576.13 258.55 577.18 257.92 578.32 257.61C579.47 257.3 580.61 257.19 581.87 257.3C583.02 257.4 584.27 257.93 585.42 258.66C586.57 259.39 587.71 260.43 588.86 261.89L589.8 263.04L576.45 273.15L574.47 270.54L584.06 263.24C583.54 262.51 582.81 261.99 582.08 261.68C581.35 261.37 580.52 261.26 579.79 261.26C578.96 261.36 578.23 261.68 577.5 262.2C576.67 262.83 576.14 263.56 575.83 264.29C575.52 265.12 575.41 265.96 575.62 266.79C575.72 267.62 576.14 268.46 576.66 269.19L578.33 271.48C579.06 272.42 579.79 273.15 580.73 273.46C581.56 273.88 582.5 273.98 583.34 273.88C584.28 273.78 585.11 273.36 585.95 272.73C586.47 272.31 586.99 271.9 587.31 271.37C587.63 270.84 587.83 270.33 587.94 269.81C588.05 269.29 588.04 268.66 587.84 268.04L591.7 265.75C592.22 266.9 592.43 268.04 592.33 269.19C592.23 270.34 591.81 271.48 591.18 272.63C590.24 273.99 589.3 275.03 588.05 275.97L588.01 275.95Z" fill="white"/>
<path d="M360.08 267.5L376.35 245.71L384.48 251.86C386.15 253.11 387.3 254.47 388.03 255.93C388.66 257.39 388.97 258.95 388.66 260.41C388.45 261.97 387.83 263.43 386.78 264.79C385.74 266.15 384.49 267.19 383.13 267.81C381.77 268.44 380.21 268.64 378.65 268.44C377.09 268.23 375.42 267.5 373.75 266.15L368.33 262.08L370.73 258.85L375.63 262.5C376.57 263.23 377.51 263.65 378.45 263.75C379.28 263.85 380.12 263.75 380.85 263.33C381.58 263.02 382.21 262.39 382.83 261.66C383.45 260.93 383.77 260.1 383.87 259.26C383.97 258.42 383.87 257.59 383.45 256.86C383.03 256.03 382.41 255.3 381.36 254.57L377.71 251.86L363.84 270.32L360.09 267.5H360.08Z" fill="white"/>
<path d="M399.29 262.91L383.02 284.7L379.16 281.78L395.43 259.99L399.29 262.91Z" fill="white"/>
<path d="M391.47 291.48C390.43 290.75 389.59 289.81 389.07 288.87C388.55 287.93 388.24 286.89 388.34 285.74C388.44 284.7 388.86 283.55 389.59 282.51C390.32 281.57 391.05 280.95 391.78 280.63C392.61 280.32 393.34 280.11 394.28 280.21C395.11 280.31 396.05 280.52 396.89 280.84C397.72 281.26 398.66 281.67 399.5 282.2C400.54 282.83 401.38 283.35 402 283.66C402.63 284.08 403.15 284.18 403.56 284.29C403.98 284.29 404.29 284.19 404.6 283.77V283.67C405.23 282.84 405.43 282.11 405.23 281.27C405.13 280.44 404.6 279.71 403.67 279.08C402.73 278.35 401.79 278.04 400.96 278.04C400.13 278.04 399.4 278.25 398.77 278.67L395.54 275.44C396.58 274.61 397.63 274.19 398.77 273.98C399.92 273.77 401.06 273.88 402.32 274.29C403.57 274.71 404.72 275.23 405.87 276.17C406.7 276.8 407.33 277.42 408.06 278.26C408.69 278.99 409.21 279.82 409.52 280.76C409.83 281.7 409.94 282.64 409.83 283.68C409.72 284.72 409.2 285.77 408.37 286.81L400.24 297.76L396.49 294.94L398.16 292.65L398.06 292.55C397.54 292.86 396.81 292.97 396.08 293.07C395.35 293.17 394.62 293.07 393.79 292.86C393.16 292.55 392.33 292.13 391.5 291.5L391.47 291.48ZM394.49 289.39C395.22 290.02 396.05 290.33 396.89 290.43C397.73 290.53 398.45 290.43 399.08 290.22C399.81 289.91 400.33 289.49 400.75 288.86L402.21 286.98C402 286.98 401.69 286.88 401.38 286.77C401.07 286.66 400.65 286.46 400.23 286.25C399.81 286.04 399.4 285.83 399.08 285.62C398.66 285.41 398.35 285.2 398.04 285.1C397.41 284.79 396.79 284.47 396.16 284.37C395.53 284.16 395.01 284.16 394.49 284.27C393.97 284.38 393.55 284.69 393.13 285.21C392.61 285.94 392.5 286.67 392.71 287.4C393.23 288.03 393.75 288.76 394.48 289.38L394.49 289.39Z" fill="white"/>
<path d="M415.13 293.77L407.94 303.36L404.08 300.44L416.28 284.07L419.93 286.78L417.84 289.6L418.05 289.7C419.09 289.07 420.24 288.76 421.49 288.87C422.74 288.97 423.89 289.5 425.14 290.33C426.29 291.16 427.12 292.1 427.54 293.25C428.06 294.4 428.17 295.54 427.96 296.8C427.75 298.05 427.13 299.3 426.19 300.66L418.37 311.09L414.51 308.17L421.81 298.37C422.64 297.33 422.96 296.18 422.85 295.14C422.74 294.1 422.22 293.16 421.18 292.43C420.55 291.91 419.82 291.6 419.09 291.49C418.36 291.38 417.63 291.49 416.9 291.8C416.38 292.43 415.75 292.95 415.13 293.78V293.77Z" fill="white"/>
<path d="M733.57 250.4L725.75 245.5L740.24 222.46L748.16 227.46C750.45 228.92 752.12 230.59 753.16 232.57C754.2 234.55 754.62 236.64 754.41 238.93C754.2 241.22 753.37 243.52 751.8 245.92C750.24 248.32 748.57 250.09 746.59 251.24C744.61 252.39 742.52 252.91 740.23 252.8C738.14 252.7 735.85 251.86 733.56 250.4H733.57ZM732.21 244.56L735.65 246.75C737.21 247.79 738.78 248.31 740.24 248.42C741.7 248.53 743.06 248.11 744.31 247.27C745.56 246.43 746.81 245.18 747.86 243.41C749.01 241.64 749.63 239.97 749.84 238.51C750.05 237.05 749.74 235.59 749.11 234.34C748.38 233.09 747.34 231.94 745.77 231L742.22 228.81L732.21 244.55V244.56Z" fill="white"/>
<path d="M752.65 265.62C751.19 264.16 750.15 262.7 749.73 261.03C749.21 259.36 749.21 257.69 749.73 256.03C750.25 254.36 751.19 252.69 752.75 251.23C754.21 249.67 755.77 248.62 757.44 248.1C759.11 247.47 760.78 247.37 762.44 247.68C764.11 247.99 765.67 248.93 767.03 250.18C767.97 251.01 768.7 252.06 769.22 253.1C769.74 254.14 770.05 255.29 770.05 256.54C770.05 257.79 769.84 258.94 769.32 260.29C768.8 261.54 767.86 262.9 766.71 264.15L765.67 265.19L753.57 253.62L755.76 251.33L764.52 259.67C765.15 259.04 765.56 258.31 765.77 257.48C765.98 256.65 765.98 255.92 765.77 255.08C765.56 254.24 765.14 253.62 764.41 252.99C763.68 252.36 762.95 251.84 762.01 251.74C761.18 251.53 760.34 251.64 759.51 251.84C758.68 252.15 757.95 252.57 757.32 253.2L755.34 255.29C754.51 256.12 753.98 257.06 753.67 257.9C753.36 258.74 753.36 259.67 753.67 260.61C753.88 261.44 754.4 262.28 755.23 263.01C755.75 263.53 756.27 263.84 756.79 264.16C757.31 264.37 757.94 264.58 758.46 264.58C758.98 264.58 759.61 264.48 760.13 264.16L763.05 267.6C762.01 268.23 760.96 268.64 759.71 268.75C758.56 268.85 757.31 268.65 756.06 268.12C755.02 267.6 753.77 266.76 752.62 265.62H752.65Z" fill="white"/>
<path d="M754.63 277.61L777.67 261.55L780.38 265.41L777.56 267.39L777.77 267.6C778.29 267.5 778.92 267.5 779.65 267.6C780.38 267.6 781.11 267.91 781.84 268.23C782.57 268.65 783.3 269.27 784.03 270.32C784.97 271.57 785.39 273.03 785.49 274.49C785.59 275.95 785.18 277.51 784.34 278.97C783.51 280.43 782.15 281.89 780.27 283.14C778.39 284.39 776.62 285.23 774.95 285.54C773.28 285.85 771.72 285.75 770.26 285.12C768.9 284.6 767.65 283.66 766.82 282.3C766.19 281.36 765.78 280.42 765.67 279.59C765.57 278.76 765.57 277.92 765.77 277.3C765.98 276.57 766.19 276.05 766.4 275.53L766.3 275.32L757.44 281.58L754.62 277.62L754.63 277.61ZM771.94 271.25C770.9 271.98 770.06 272.81 769.44 273.65C768.81 274.48 768.5 275.42 768.5 276.36C768.5 277.3 768.71 278.13 769.33 278.97C769.95 279.81 770.69 280.43 771.52 280.64C772.35 280.85 773.4 280.85 774.34 280.64C775.38 280.33 776.43 279.91 777.47 279.18C778.51 278.45 779.35 277.62 779.97 276.78C780.6 275.95 780.91 275.01 780.91 274.17C780.91 273.23 780.7 272.4 780.08 271.46C779.45 270.63 778.72 270.1 777.89 269.79C777.06 269.48 776.12 269.48 775.07 269.79C774.13 270 773.09 270.52 771.94 271.25Z" fill="white"/>
<path d="M799.26 283.66L774.86 295.76L772.77 291.49L797.17 279.39L799.26 283.66Z" fill="white"/>
<path d="M778.93 307.12C778.3 305.24 778.2 303.47 778.62 301.8C779.04 300.13 779.77 298.67 781.02 297.42C782.27 296.17 783.94 295.23 785.92 294.6C787.9 293.97 789.78 293.77 791.55 294.08C793.32 294.39 794.78 295.02 796.14 296.17C797.39 297.32 798.33 298.78 798.96 300.65C799.59 302.52 799.69 304.3 799.27 305.97C798.85 307.64 798.02 309.1 796.77 310.35C795.52 311.6 793.85 312.54 791.87 313.17C789.89 313.8 788.01 314 786.24 313.69C784.47 313.38 783.01 312.75 781.65 311.6C780.4 310.56 779.46 308.99 778.94 307.12H778.93ZM782.58 305.97C782.89 307.01 783.52 307.74 784.25 308.26C785.08 308.78 786.02 308.99 787.07 309.09C788.12 309.19 789.26 308.99 790.41 308.57C791.56 308.15 792.6 307.63 793.43 307.01C794.26 306.38 794.89 305.55 795.2 304.72C795.51 303.89 795.51 302.84 795.2 301.9C794.89 300.86 794.26 300.02 793.53 299.61C792.7 299.09 791.76 298.88 790.71 298.78C789.67 298.78 788.52 298.88 787.27 299.3C786.12 299.72 785.08 300.24 784.25 300.86C783.42 301.49 782.79 302.32 782.48 303.15C782.17 303.98 782.17 304.92 782.58 305.97Z" fill="white"/>
<path d="M775.17 321.41C775.07 320.78 775.07 320.16 775.07 319.64C775.07 319.12 775.17 318.6 775.28 318.28L779.14 318.91C779.04 319.64 779.04 320.27 779.14 320.79C779.24 321.31 779.45 321.83 779.87 322.15C780.29 322.57 780.81 322.78 781.64 322.98L782.79 323.29L802.5 313.18L803.13 318.18L788.43 324.85V325.06L804.28 327.67L805.01 332.78L781.24 327.67C780.09 327.46 779.15 327.04 778.32 326.52C777.49 326 776.76 325.27 776.23 324.43C775.71 323.7 775.4 322.66 775.19 321.41H775.17Z" fill="white"/>
<path d="M606.36 419.63L611.36 423.07L606.88 443.92L607.09 444.13L624.92 432.45L629.92 435.89L614.49 458.31L610.63 455.6L621.27 440.17L621.06 440.07L604.38 451.12L601.46 449.14L605.84 429.54L605.63 429.44L594.99 444.87L591.13 442.16L606.35 419.64L606.36 419.63Z" fill="white"/>
<path d="M629.61 465.82C627.73 465.09 626.27 464.05 625.34 462.69C624.3 461.33 623.78 459.77 623.57 458C623.47 456.23 623.78 454.35 624.51 452.47C625.34 450.49 626.39 448.92 627.74 447.78C629.1 446.63 630.56 445.9 632.22 445.59C633.89 445.28 635.66 445.59 637.54 446.32C639.42 447.05 640.88 448.09 641.81 449.45C642.85 450.81 643.37 452.37 643.58 454.14C643.68 455.91 643.37 457.79 642.64 459.77C641.81 461.75 640.76 463.32 639.41 464.46C638.05 465.61 636.59 466.34 634.93 466.55C633.26 466.76 631.49 466.55 629.61 465.82ZM631.07 462.27C632.11 462.69 633.05 462.69 633.89 462.48C634.83 462.17 635.56 461.65 636.29 460.81C637.02 459.97 637.54 459.04 638.06 457.89C638.58 456.74 638.79 455.6 638.79 454.55C638.79 453.5 638.69 452.57 638.16 451.73C637.63 450.89 637.01 450.27 635.97 449.85C634.93 449.43 633.99 449.33 633.05 449.64C632.11 449.95 631.38 450.47 630.65 451.31C629.92 452.15 629.4 453.08 628.88 454.23C628.46 455.38 628.15 456.52 628.15 457.57C628.15 458.62 628.36 459.55 628.78 460.39C629.41 461.22 630.14 461.85 631.07 462.27Z" fill="white"/>
<path d="M652.24 459.77L650.36 471.55L645.56 470.82L648.79 450.7L653.38 451.43L652.86 454.87H653.07C653.7 453.83 654.63 452.99 655.68 452.58C656.83 452.06 658.08 451.95 659.64 452.16C661 452.37 662.25 452.89 663.19 453.62C664.13 454.35 664.75 455.39 665.17 456.54C665.59 457.79 665.59 459.15 665.38 460.81L663.29 473.63L658.49 472.9L660.47 460.8C660.68 459.44 660.47 458.3 659.95 457.46C659.43 456.62 658.49 456.1 657.24 455.9C656.41 455.8 655.68 455.8 654.95 456.11C654.22 456.32 653.7 456.84 653.18 457.47C652.76 457.99 652.45 458.72 652.24 459.76V459.77Z" fill="white"/>
<path d="M669.44 473.74L670.17 453.41L674.97 453.62L674.24 473.95L669.44 473.74ZM672.67 450.59C671.94 450.59 671.21 450.28 670.69 449.76C670.17 449.24 669.86 448.61 669.96 447.88C669.96 447.15 670.27 446.52 670.9 446C671.42 445.48 672.15 445.27 672.88 445.27C673.61 445.27 674.34 445.58 674.86 446.1C675.38 446.62 675.59 447.25 675.59 447.98C675.59 448.71 675.28 449.34 674.76 449.75C674.13 450.38 673.51 450.58 672.67 450.58V450.59Z" fill="white"/>
<path d="M688.73 453.1L688.94 456.85L677.26 457.68L677.05 453.93L688.73 453.1ZM679.55 448.72L684.35 448.41L685.6 467.49C685.6 468.12 685.81 468.64 686.02 468.95C686.23 469.26 686.54 469.47 686.85 469.58C687.16 469.69 687.58 469.68 688 469.68C688.31 469.68 688.63 469.58 688.83 469.58C689.04 469.48 689.25 469.48 689.35 469.37L690.39 473.02C690.18 473.12 689.76 473.23 689.35 473.44C688.93 473.54 688.31 473.65 687.68 473.75C686.43 473.85 685.39 473.75 684.34 473.44C683.4 473.13 682.57 472.5 681.94 471.77C681.31 470.94 681 469.89 680.9 468.64L679.54 448.72H679.55Z" fill="white"/>
<path d="M703.75 471.24C701.77 471.66 700 471.66 698.43 471.14C696.76 470.62 695.41 469.68 694.26 468.32C693.11 466.96 692.28 465.3 691.86 463.21C691.44 461.12 691.34 459.25 691.76 457.58C692.18 455.81 693.01 454.45 694.26 453.2C695.51 452.05 697.08 451.22 699.06 450.8C701.04 450.38 702.81 450.38 704.38 450.9C706.05 451.42 707.4 452.36 708.55 453.72C709.7 455.08 710.53 456.74 710.95 458.83C711.47 460.92 711.47 462.79 711.05 464.46C710.63 466.13 709.8 467.59 708.55 468.84C707.3 469.99 705.73 470.82 703.75 471.24ZM702.92 467.49C703.96 467.28 704.8 466.76 705.32 466.03C705.84 465.3 706.26 464.36 706.36 463.32C706.46 462.28 706.36 461.13 706.15 459.88C705.84 458.63 705.42 457.59 704.9 456.65C704.27 455.71 703.65 455.09 702.81 454.67C701.97 454.25 701.04 454.15 699.99 454.36C698.95 454.57 698.11 455.09 697.49 455.82C696.87 456.55 696.55 457.49 696.45 458.53C696.35 459.57 696.45 460.72 696.66 461.97C696.97 463.22 697.39 464.26 697.91 465.1C698.43 466.04 699.16 466.66 700 467.08C700.94 467.71 701.88 467.71 702.92 467.5V467.49Z" fill="white"/>
<path d="M718.45 466.76L711.26 447.68L715.64 446.01L716.89 449.14L717.1 449.04C717 447.79 717.31 446.75 717.93 445.81C718.56 444.87 719.39 444.25 720.54 443.83C720.75 443.73 721.06 443.62 721.37 443.52C721.68 443.42 722 443.31 722.2 443.31L723.76 447.48C723.55 447.48 723.24 447.58 722.82 447.69C722.4 447.79 721.99 447.9 721.57 448.11C720.74 448.42 720.11 448.84 719.59 449.47C719.07 450.1 718.76 450.72 718.65 451.56C718.55 452.29 718.55 453.12 718.86 453.96L723.13 465.12L718.44 466.79L718.45 466.76Z" fill="white"/>
<path d="M247.89 440.79L248.83 463.31L249.14 463.41L261.86 444.75L267.07 446.21L250.39 469.67L244.55 468L242.88 439.22L247.88 440.78L247.89 440.79Z" fill="white"/>
<path d="M271.97 474.05C269.88 473.84 268.22 473.32 266.86 472.28C265.5 471.34 264.46 469.99 263.73 468.32C263.1 466.65 262.9 464.77 263 462.69C263.21 460.6 263.73 458.83 264.67 457.27C265.61 455.71 266.86 454.66 268.32 453.83C269.88 453.1 271.55 452.79 273.53 453C274.78 453.1 275.93 453.42 277.08 453.94C278.12 454.46 279.06 455.19 279.9 456.03C280.73 456.97 281.26 458.12 281.67 459.37C282.09 460.73 282.19 462.29 281.98 464.06L281.88 465.52L265.2 464.06L265.51 460.83L277.61 461.87C277.71 460.93 277.51 460.1 277.19 459.37C276.87 458.64 276.36 458.01 275.73 457.49C275.1 456.97 274.27 456.76 273.33 456.66C272.39 456.56 271.45 456.76 270.72 457.18C269.89 457.6 269.26 458.12 268.84 458.85C268.32 459.58 268.11 460.41 268.01 461.25L267.8 464.07C267.7 465.22 267.8 466.26 268.22 467.2C268.53 468.03 269.16 468.76 269.89 469.29C270.62 469.82 271.56 470.12 272.6 470.23C273.33 470.33 273.96 470.23 274.48 470.13C275.11 470.03 275.63 469.71 276.04 469.4C276.45 469.09 276.87 468.57 277.08 468.04L281.46 468.98C281.04 470.13 280.42 471.07 279.58 471.9C278.74 472.73 277.6 473.26 276.35 473.67C274.99 474.09 273.64 474.19 271.97 474.09V474.05Z" fill="white"/>
<path d="M287.09 473.95L285.63 453.62L290.32 453.31L290.53 456.75H290.74C291.05 455.5 291.57 454.56 292.41 453.93C293.24 453.2 294.29 452.89 295.43 452.78H297.2L297.51 457.16C297.3 457.06 296.99 457.06 296.57 457.06H295.32C294.49 457.16 293.65 457.37 293.03 457.79C292.41 458.21 291.88 458.73 291.47 459.46C291.16 460.19 290.95 460.92 291.05 461.75L291.88 473.74L287.08 473.95H287.09Z" fill="white"/>
<path d="M301.07 449.13C300.34 449.23 299.61 449.13 298.98 448.71C298.35 448.29 297.94 447.77 297.83 447.04C297.73 446.31 297.93 445.68 298.35 445.06C298.77 444.43 299.39 444.12 300.12 444.02C300.85 443.92 301.58 444.02 302.21 444.44C302.84 444.86 303.15 445.38 303.36 446.11C303.46 446.84 303.26 447.47 302.84 448.09C302.42 448.61 301.8 449.03 301.07 449.13ZM302.53 472.49L299.19 452.37L303.99 451.54L307.33 471.66L302.53 472.49Z" fill="white"/>
<path d="M317.33 448.2L318.37 451.75L306.8 454.98L305.76 451.43L317.33 448.2ZM314.1 470.2L308.16 448.72C307.74 447.36 307.74 446.22 308.06 445.17C308.38 444.12 308.89 443.29 309.73 442.56C310.56 441.83 311.5 441.31 312.65 441C313.48 440.79 314.21 440.69 314.84 440.58C315.47 440.58 315.99 440.48 316.3 440.58L316.4 444.44H315.57C315.26 444.44 314.94 444.54 314.53 444.65C313.7 444.86 313.17 445.28 312.86 445.8C312.65 446.32 312.65 446.95 312.86 447.68L318.8 468.85L314.11 470.21L314.1 470.2Z" fill="white"/>
<path d="M335.16 471.13C334.53 471.44 334.01 471.65 333.49 471.76C332.97 471.97 332.55 471.97 332.13 472.07L331.5 468.21C332.23 468.11 332.86 467.9 333.27 467.58C333.79 467.37 334.1 466.95 334.31 466.43C334.52 465.91 334.62 465.28 334.52 464.45L334.42 463.3L318.47 448.18L323.06 445.89L334.22 457.57L334.43 457.47L331.72 441.62L336.31 439.33L339.23 463.42C339.33 464.57 339.33 465.61 339.13 466.55C338.93 467.49 338.5 468.43 337.88 469.16C337.25 469.99 336.32 470.62 335.17 471.14L335.16 471.13Z" fill="white"/>
<path d="M162.81 297.84L161.56 302.64C160.73 302.54 160 302.64 159.27 302.85C158.54 303.06 157.91 303.37 157.39 303.79C156.87 304.21 156.35 304.73 155.93 305.46C155.51 306.09 155.2 306.82 154.99 307.65C154.68 309.11 154.68 310.47 155.09 311.72C155.51 312.97 156.34 314.12 157.59 315.06C158.84 316 160.41 316.73 162.39 317.25C164.37 317.77 166.14 317.88 167.71 317.56C169.27 317.25 170.53 316.62 171.46 315.68C172.4 314.74 173.13 313.59 173.44 312.13C173.65 311.3 173.75 310.57 173.65 309.84C173.65 309.11 173.44 308.38 173.23 307.75C172.92 307.12 172.6 306.5 172.08 305.98C171.56 305.46 170.93 305.04 170.2 304.62L171.45 299.82C172.7 300.34 173.74 300.97 174.68 301.91C175.62 302.85 176.45 303.79 176.97 304.93C177.6 306.08 177.91 307.43 178.12 308.79C178.22 310.15 178.12 311.71 177.81 313.27C177.18 315.56 176.14 317.54 174.68 319.11C173.12 320.67 171.24 321.72 168.95 322.24C166.66 322.76 164.05 322.66 161.23 322.03C158.41 321.3 156.12 320.15 154.35 318.59C152.58 317.03 151.43 315.25 150.8 313.17C150.17 311.08 150.17 308.9 150.7 306.6C151.01 305.14 151.64 303.78 152.37 302.64C153.1 301.49 153.93 300.55 154.98 299.72C156.03 298.89 157.17 298.36 158.53 298.05C159.89 297.74 161.24 297.63 162.8 297.84H162.81Z" fill="white"/>
<path d="M181.68 300.24L163.22 291.59L165.2 287.42L168.33 288.88L168.43 288.67C167.49 287.84 166.97 286.9 166.76 285.75C166.55 284.6 166.66 283.56 167.18 282.52C167.28 282.31 167.39 282 167.6 281.69C167.81 281.38 167.91 281.17 168.02 280.96L171.98 282.84C171.88 282.94 171.67 283.26 171.35 283.67C171.14 284.09 170.93 284.4 170.72 284.82C170.3 285.65 170.2 286.38 170.2 287.22C170.2 288.06 170.51 288.68 170.93 289.41C171.35 290.04 171.97 290.56 172.81 290.97L183.65 296.08L181.67 300.25L181.68 300.24Z" fill="white"/>
<path d="M192.42 281.47C191.27 283.14 189.92 284.39 188.35 285.12C186.78 285.85 185.12 286.16 183.45 285.85C181.68 285.64 179.9 284.91 178.24 283.66C176.47 282.51 175.22 281.16 174.38 279.59C173.54 278.02 173.13 276.36 173.23 274.69C173.33 273.02 173.86 271.35 175 269.79C175.73 268.75 176.56 267.91 177.5 267.18C178.44 266.45 179.59 266.03 180.73 265.82C181.88 265.61 183.13 265.61 184.48 265.92C185.84 266.23 187.19 266.86 188.75 267.9L190 268.73L180.51 282.49L177.8 280.61L184.68 270.6C183.95 270.08 183.12 269.77 182.28 269.66C181.44 269.55 180.72 269.66 179.99 270.08C179.26 270.39 178.63 271.02 178.11 271.75C177.59 272.58 177.28 273.42 177.28 274.25C177.28 275.08 177.49 275.92 177.8 276.75C178.22 277.48 178.74 278.21 179.47 278.73L181.76 280.29C182.7 280.92 183.74 281.33 184.68 281.44C185.62 281.54 186.45 281.44 187.29 281.02C188.13 280.6 188.75 279.98 189.38 279.14C189.8 278.51 190.01 277.99 190.21 277.37C190.31 276.74 190.42 276.22 190.31 275.7C190.21 275.18 190 274.66 189.68 274.14L192.6 270.7C193.43 271.64 193.96 272.68 194.27 273.83C194.58 274.98 194.58 276.23 194.27 277.48C193.96 278.73 193.33 280.09 192.39 281.44L192.42 281.47Z" fill="white"/>
<path d="M202.95 268.44C202.01 269.38 201.07 270 200.03 270.42C198.99 270.84 197.94 270.94 196.8 270.63C195.76 270.42 194.71 269.8 193.78 268.86C192.95 268.03 192.42 267.19 192.22 266.36C192.02 265.53 192.01 264.69 192.22 263.86C192.43 263.03 192.74 262.19 193.26 261.36C193.78 260.53 194.3 259.8 194.93 258.96C195.66 258.02 196.29 257.29 196.81 256.67C197.23 256.04 197.54 255.63 197.64 255.21C197.74 254.79 197.64 254.48 197.33 254.17L197.23 254.07C196.5 253.34 195.77 253.03 194.94 253.03C194.11 253.03 193.38 253.45 192.54 254.28C191.71 255.11 191.18 255.95 191.08 256.78C190.98 257.61 191.08 258.34 191.39 259.07L187.74 261.78C187.11 260.63 186.8 259.49 186.8 258.34C186.8 257.19 187.01 256.05 187.63 254.9C188.15 253.75 188.99 252.71 189.92 251.67C190.65 250.94 191.38 250.42 192.21 249.79C193.04 249.27 193.98 248.96 194.92 248.75C195.86 248.54 196.8 248.65 197.84 248.85C198.88 249.06 199.82 249.79 200.76 250.73L210.35 260.43L207.01 263.66L205.03 261.68L204.93 261.78C205.14 262.41 205.24 263.03 205.14 263.76C205.14 264.49 204.93 265.22 204.62 265.95C204.31 266.99 203.79 267.72 202.95 268.45V268.44ZM201.39 265.1C202.12 264.47 202.54 263.74 202.75 262.91C202.96 262.18 202.96 261.35 202.85 260.62C202.64 259.89 202.33 259.26 201.81 258.74L200.14 257.07C200.14 257.28 200.04 257.49 199.83 257.9C199.62 258.21 199.41 258.53 199.2 258.94C198.99 259.36 198.68 259.67 198.37 259.98C198.06 260.29 197.85 260.61 197.64 260.92C197.22 261.55 196.81 262.07 196.6 262.59C196.39 263.11 196.29 263.63 196.29 264.15C196.29 264.67 196.6 265.09 197.02 265.61C197.65 266.24 198.38 266.44 199.11 266.34C199.94 266.24 200.67 265.82 201.4 265.09L201.39 265.1Z" fill="white"/>
<path d="M198.67 237.89L202.53 235.07L214 250.4C214.42 250.92 214.73 251.23 215.15 251.44C215.57 251.54 215.88 251.65 216.19 251.54C216.5 251.43 216.82 251.33 217.13 251.02C217.34 250.81 217.55 250.71 217.76 250.5C217.97 250.29 218.07 250.19 218.18 250.08L221.1 252.58C221 252.79 220.68 253.1 220.37 253.52C220.06 253.83 219.64 254.25 219.12 254.67C218.18 255.4 217.24 255.92 216.2 256.13C215.16 256.34 214.22 256.34 213.28 256.03C212.34 255.72 211.51 254.99 210.67 253.94L198.68 237.88L198.67 237.89ZM208.68 236.53L210.87 239.55L201.49 246.54L199.3 243.52L208.68 236.53Z" fill="white"/>
<path d="M230.06 247.9C228.29 248.84 226.51 249.36 224.85 249.36C223.19 249.36 221.51 248.84 220.05 247.8C218.59 246.86 217.34 245.4 216.3 243.53C215.26 241.65 214.74 239.88 214.74 238.11C214.64 236.34 215.05 234.67 215.89 233.21C216.72 231.75 217.98 230.5 219.75 229.56C220.9 228.93 222.04 228.52 223.19 228.41C224.34 228.2 225.48 228.31 226.74 228.62C227.89 228.93 229.03 229.56 230.08 230.5C231.12 231.44 232.06 232.59 233 234.15L233.73 235.4L219.03 243.43L217.47 240.61L228.11 234.77C227.69 233.94 227.07 233.31 226.44 232.89C225.71 232.47 224.98 232.26 224.15 232.16C223.32 232.16 222.48 232.37 221.75 232.79C220.92 233.31 220.29 233.83 219.87 234.67C219.45 235.4 219.24 236.23 219.24 237.17C219.24 238 219.45 238.84 219.87 239.67L221.23 242.17C221.75 243.21 222.48 244.05 223.32 244.57C224.16 245.09 224.99 245.4 225.82 245.4C226.76 245.4 227.59 245.19 228.53 244.67C229.16 244.36 229.68 243.94 230.09 243.52C230.5 243.1 230.82 242.58 230.92 242.06C231.13 241.54 231.13 240.91 231.02 240.29L235.19 238.62C235.5 239.77 235.5 240.91 235.29 242.06C234.98 243.21 234.46 244.25 233.62 245.29C232.68 246.33 231.53 247.17 230.07 247.9H230.06Z" fill="white"/>
<path d="M436.09 143.15C435.99 142 435.46 141.06 434.53 140.44C433.6 139.82 432.44 139.5 430.98 139.5C429.94 139.5 429.1 139.6 428.37 139.92C427.64 140.23 427.12 140.65 426.7 141.17C426.28 141.69 426.07 142.32 426.07 143.05C426.07 143.57 426.17 144.09 426.49 144.51C426.81 144.93 427.12 145.24 427.53 145.55C427.94 145.86 428.47 146.07 428.99 146.28C429.51 146.49 430.14 146.59 430.66 146.8L433.27 147.43C434.31 147.64 435.25 147.95 436.29 148.37C437.23 148.79 438.06 149.31 438.9 149.93C439.63 150.56 440.26 151.29 440.67 152.22C441.08 153.15 441.3 154.1 441.3 155.35C441.3 156.91 440.88 158.37 440.05 159.62C439.22 160.87 438.07 161.81 436.5 162.44C434.94 163.07 433.06 163.48 430.87 163.48C428.68 163.48 426.91 163.17 425.34 162.54C423.77 161.91 422.52 160.87 421.69 159.62C420.86 158.37 420.33 156.8 420.23 155.03H425.13C425.23 155.97 425.44 156.8 425.96 157.43C426.48 158.06 427.11 158.58 427.94 158.89C428.77 159.2 429.71 159.31 430.76 159.31C431.81 159.31 432.74 159.1 433.58 158.79C434.41 158.48 435.04 157.96 435.46 157.43C435.88 156.8 436.19 156.18 436.19 155.34C436.19 154.61 435.98 154.09 435.56 153.57C435.14 153.05 434.62 152.74 433.89 152.42C433.16 152.1 432.33 151.79 431.28 151.59L428.15 150.76C425.86 150.13 424.08 149.3 422.83 148.15C421.58 147 420.85 145.44 420.85 143.46C420.85 141.9 421.27 140.44 422.21 139.19C423.04 137.94 424.3 137 425.76 136.37C427.22 135.74 428.99 135.33 430.87 135.33C432.85 135.33 434.52 135.64 435.98 136.37C437.44 137 438.59 137.93 439.42 139.19C440.25 140.34 440.67 141.69 440.67 143.26L436.08 143.16L436.09 143.15ZM453.71 163.38C451.62 163.38 449.85 162.96 448.39 162.13C446.93 161.3 445.78 160.04 444.95 158.48C444.12 156.92 443.7 155.04 443.7 152.85C443.7 150.66 444.12 148.89 444.95 147.32C445.78 145.76 446.93 144.5 448.29 143.57C449.75 142.63 451.42 142.21 453.4 142.21C454.65 142.21 455.9 142.42 456.95 142.84C458.1 143.26 459.04 143.88 459.97 144.72C460.8 145.55 461.53 146.6 462.06 147.95C462.58 149.2 462.79 150.77 462.79 152.54V154H446V150.77H458.2C458.2 149.83 457.99 149 457.57 148.27C457.15 147.54 456.63 147.02 455.9 146.6C455.17 146.18 454.44 145.97 453.5 145.97C452.56 145.97 451.62 146.18 450.89 146.7C450.16 147.22 449.53 147.74 449.12 148.58C448.7 149.31 448.49 150.14 448.49 151.08V153.9C448.49 155.05 448.7 156.09 449.12 156.92C449.54 157.75 450.16 158.38 451 158.9C451.83 159.32 452.67 159.53 453.71 159.53C454.44 159.53 455.07 159.43 455.59 159.22C456.11 159.01 456.63 158.7 457.05 158.28C457.47 157.86 457.78 157.45 457.99 156.82L462.47 157.34C462.16 158.49 461.64 159.53 460.8 160.47C459.97 161.3 459.03 162.03 457.78 162.56C456.74 163.19 455.38 163.39 453.71 163.39V163.38ZM475.08 163.38C472.99 163.38 471.33 162.96 469.87 162.02C468.41 161.08 467.26 159.93 466.53 158.27C465.7 156.71 465.38 154.83 465.38 152.74C465.38 150.65 465.8 148.78 466.63 147.21C467.46 145.65 468.51 144.39 469.97 143.46C471.43 142.52 473.2 142.1 475.18 142.1C476.85 142.1 478.31 142.41 479.56 143.04C480.81 143.67 481.85 144.5 482.69 145.65C483.42 146.8 483.94 148.05 484.05 149.51H479.46C479.25 148.57 478.83 147.74 478.1 147.01C477.37 146.38 476.43 145.97 475.28 145.97C474.34 145.97 473.4 146.28 472.67 146.8C471.94 147.32 471.31 148.05 470.9 149.09C470.48 150.03 470.27 151.28 470.27 152.64C470.27 154 470.48 155.25 470.9 156.29C471.32 157.33 471.84 158.06 472.57 158.58C473.3 159.1 474.24 159.41 475.18 159.41C475.91 159.41 476.54 159.31 477.06 158.99C477.58 158.67 478.1 158.36 478.52 157.84C478.94 157.32 479.15 156.69 479.35 155.96H483.94C483.84 157.42 483.42 158.67 482.69 159.82C481.96 160.97 480.92 161.8 479.67 162.43C478.31 163.06 476.85 163.37 475.08 163.37V163.38ZM500.1 154.31V142.42H504.9V162.96H500.21V159.31H500C499.58 160.46 498.75 161.4 497.71 162.13C496.67 162.86 495.42 163.17 493.85 163.17C492.49 163.17 491.35 162.86 490.3 162.23C489.25 161.6 488.53 160.77 487.9 159.62C487.27 158.47 487.07 157.12 487.07 155.45V142.42H491.87V154.72C491.87 155.97 492.18 157.01 492.91 157.85C493.64 158.58 494.58 159 495.73 159C496.46 159 497.09 158.79 497.82 158.48C498.45 158.17 499.07 157.65 499.49 156.92C499.91 156.29 500.12 155.36 500.12 154.31H500.1ZM509.17 162.96V142.52H513.86V145.96H514.07C514.49 144.81 515.11 143.87 515.95 143.25C516.89 142.62 517.93 142.31 519.08 142.31H520.02C520.33 142.31 520.65 142.31 520.85 142.41V146.89C520.64 146.79 520.33 146.79 519.91 146.68C519.49 146.58 519.08 146.58 518.66 146.58C517.83 146.58 516.99 146.79 516.26 147.1C515.53 147.52 515.01 148.04 514.59 148.66C514.17 149.29 513.96 150.12 513.96 150.95V162.94H509.16L509.17 162.96ZM531.48 163.38C529.39 163.38 527.62 162.96 526.16 162.13C524.7 161.3 523.55 160.04 522.72 158.48C521.89 156.92 521.47 155.04 521.47 152.85C521.47 150.66 521.89 148.89 522.72 147.32C523.55 145.75 524.7 144.5 526.06 143.57C527.52 142.63 529.19 142.21 531.17 142.21C532.42 142.21 533.67 142.42 534.72 142.84C535.87 143.26 536.81 143.88 537.74 144.72C538.57 145.55 539.3 146.6 539.83 147.95C540.35 149.2 540.56 150.77 540.56 152.54V154H523.88V150.77H536.08C536.08 149.83 535.87 149 535.45 148.27C535.03 147.54 534.51 147.02 533.78 146.6C533.05 146.18 532.32 145.97 531.38 145.97C530.44 145.97 529.5 146.18 528.77 146.7C528.04 147.22 527.41 147.74 527 148.58C526.58 149.31 526.37 150.14 526.37 151.08V153.9C526.37 155.05 526.58 156.09 527 156.92C527.42 157.75 528.04 158.38 528.88 158.9C529.71 159.32 530.55 159.53 531.59 159.53C532.32 159.53 532.95 159.43 533.47 159.22C533.99 159.01 534.51 158.7 534.93 158.28C535.35 157.86 535.66 157.45 535.87 156.82L540.35 157.34C540.04 158.49 539.52 159.53 538.68 160.47C537.85 161.3 536.91 162.03 535.66 162.56C534.51 163.19 533.16 163.39 531.49 163.39L531.48 163.38Z" fill="#171321"/>
</g>
<defs>
<filter id="filter0_d_1_67" x="146.314" y="133.33" width="662.696" height="418.26" filterUnits="userSpaceOnUse" color-interpolation-filters="sRGB">
<feFlood flood-opacity="0" result="BackgroundImageFix"/>
<feColorMatrix in="SourceAlpha" type="matrix" values="0 0 0 0 0 0 0 0 0 0 0 0 0 0 0 0 0 0 127 0" result="hardAlpha"/>
<feOffset dy="2"/>
<feGaussianBlur stdDeviation="2"/>
<feColorMatrix type="matrix" values="0 0 0 0 1 0 0 0 0 1 0 0 0 0 1 0 0 0 0.25 0"/>
<feBlend mode="normal" in2="BackgroundImageFix" result="effect1_dropShadow_1_67"/>
<feBlend mode="normal" in="SourceGraphic" in2="effect1_dropShadow_1_67" result="shape"/>
</filter>
<linearGradient id="paint0_linear_1_67" x1="347.08" y1="12.15" x2="611.68" y2="327.49" gradientUnits="userSpaceOnUse">
<stop stop-color="#F9A026" stop-opacity="0.1"/>
<stop offset="0.5" stop-color="#F9A026" stop-opacity="0.5"/>
<stop offset="0.77" stop-color="#7759BF" stop-opacity="0.5"/>
<stop offset="1" stop-color="#7759BF" stop-opacity="0.1"/>
</linearGradient>
<linearGradient id="paint1_linear_1_67" x1="379.78" y1="341.34" x2="589.08" y2="590.78" gradientUnits="userSpaceOnUse">
<stop stop-color="#F9A026" stop-opacity="0.1"/>
<stop offset="0.5" stop-color="#F9A026" stop-opacity="0.5"/>
<stop offset="0.77" stop-color="#7759BF" stop-opacity="0.5"/>
<stop offset="1" stop-color="#7759BF" stop-opacity="0.1"/>
</linearGradient>
<linearGradient id="paint2_linear_1_67" x1="479.38" y1="182.68" x2="479.38" y2="505.47" gradientUnits="userSpaceOnUse">
<stop stop-color="#A686F2"/>
<stop offset="0.88" stop-color="#5829C8"/>
</linearGradient>
<linearGradient id="paint3_linear_1_67" x1="802.82" y1="587.39" x2="802.82" y2="344.08" gradientUnits="userSpaceOnUse">
<stop stop-color="#DD4329" stop-opacity="0.61"/>
<stop offset="0.74" stop-color="#FFC581"/>
</linearGradient>
<linearGradient id="paint4_linear_1_67" x1="10.9795" y1="429.438" x2="183.033" y2="257.385" gradientUnits="userSpaceOnUse">
<stop stop-color="#DD4329" stop-opacity="0.61"/>
<stop offset="0.74" stop-color="#FFC581"/>
</linearGradient>
<linearGradient id="paint5_linear_1_67" x1="73.22" y1="344.08" x2="885.54" y2="344.08" gradientUnits="userSpaceOnUse">
<stop offset="0.33" stop-color="#10ACAC" stop-opacity="0.61"/>
<stop offset="0.91" stop-color="#6FD5C4"/>
</linearGradient>
<linearGradient id="paint6_linear_1_67" x1="103.22" y1="344.08" x2="855.54" y2="344.08" gradientUnits="userSpaceOnUse">
<stop offset="0.33" stop-color="#10ACAC" stop-opacity="0.61"/>
<stop offset="0.91" stop-color="#6FD5C4"/>
</linearGradient>
<linearGradient id="paint7_linear_1_67" x1="479.38" y1="519.47" x2="479.38" y2="168.68" gradientUnits="userSpaceOnUse">
<stop stop-color="#10AEAE" stop-opacity="0"/>
<stop offset="0.48" stop-color="#21B5B2" stop-opacity="0.8"/>
<stop offset="1" stop-color="#6FD7C6" stop-opacity="0"/>
</linearGradient>
</defs>
</svg>
